# xmcd
#
# Track frame offsets:
#	150
#	29107
#	51765
#	77000
#	91552
#	113180
#	128300
#	146702
#	157980
#	178137
#	196732
#	210710
# Disc length: 3046 seconds
# Revision: 1
# Processed by: cddbd v1.5.2PL0 Copyright (c) Steve Scherf et al.
#
# Submitted via: libkcddb 0.20
#
DISCID=990be40c
DTITLE=Rene Mailhes - Gitrane
DYEAR=1998
DGENRE=Jazz
TTITLE0=L'homme de liege
TTITLE1=Alone together
TTITLE2=Gitrane
TTITLE3=Bemsha swing
TTITLE4=A flower is a lovesome thing
TTITLE5=Turbulente Chloe
TTITLE6=Waltz new
TTITLE7=Nano my dear
TTITLE8=To Django
TTITLE9=Con Alma
TTITLE10=Le photographe
TTITLE11=Matalott
EXTD=YEAR: 1998
EXTT0=
EXTT1=
EXTT2=
EXTT3=
EXTT4=
EXTT5=
EXTT6=
EXTT7=
EXTT8=
EXTT9=
EXTT10=
EXTT11=
PLAYORDER=
